<?xml version="1.0" encoding="UTF-8"?>
<!-- Created with Inkscape (http://www.inkscape.org/) -->
<svg width="256" height="256" version="1.1" viewBox="0 0 67.733 67.733" xmlns="http://www.w3.org/2000/svg">
 <g>
  <g transform="matrix(.99965 0 0 1.0478 3.186 -4.4104)">
   <ellipse cx="30.967" cy="38.553" rx="28.647" ry="23.56" fill="#f00" stroke="#000" stroke-width=".86492"/>
   <ellipse transform="matrix(.99965 -.026468 .025528 .99967 0 0)" cx="28.822" cy="38.971" rx="25.948" ry="20.413" fill="#ff2f2f" stroke-opacity="0"/>
  </g>
 </g>
 <g fill="#0f0" stroke="#000" stroke-linejoin="round" stroke-width=".86492">
  <path d="m16.779 15.892 3.56-6.6597c0.33656 2.1319-0.08414 3.9041 0.25242 5.2376 1.8756-0.5563 5.2159-2.2937 7.0046-2.8397-1.3986 3.5764-4.3273 4.0925-5.1745 5.3639 2.9028 0.88346 3.676 1.4587 8.2666 2.0824-0.62455 2.1771-9.1501 1.83-9.1501 1.83-1.8029-0.47237-0.63844 3.7828 1.6407 5.3008 1.2414 0.82676-7.3765-0.2027-8.3929-2.1455-3.195 2.6033-6.8629 3.4419-10.223 4.8906 1.3216-2.5387 2.6192-4.6574 5.0483-6.4051-2.0279-0.17826-3.347-0.92354-4.5435-1.7669 3.8362-0.7959 5.3582-0.9996 7.696-1.6457"/>
  <path d="m8.6744 13.926c-1.2268 1.5137 3.7583 4.5018 5.7042 6.8816l3.5193-2.2572c-1.7046-2.7066-3.19-8.0131-5.0346-7.4964-1.3577 0.53152-3.5629 2.0054-4.189 2.872z"/>
 </g>
</svg>
